HIERARCHY
ROOT Hips
{
	OFFSET 0.00000 0.00000 0.00000
	CHANNELS 6 Xposition Yposition Zposition Zrotation Yrotation Xrotation 
	JOINT LHipJoint
	{
		OFFSET 0 0 0
		CHANNELS 3 Zrotation Yrotation Xrotation
		JOINT LeftUpLeg
		{
			OFFSET 3.13874 -1.57224 1.49786
			CHANNELS 3 Zrotation Yrotation Xrotation
			JOINT LeftLeg
			{
				OFFSET 2.10955 -5.79594 0.00000
				CHANNELS 3 Zrotation Yrotation Xrotation
				JOINT LeftFoot
				{
					OFFSET 2.41843 -6.64458 0.00000
					CHANNELS 3 Zrotation Yrotation Xrotation
					JOINT LeftToeBase
					{
						OFFSET 0.04713 -0.12948 1.66229
						CHANNELS 3 Zrotation Yrotation Xrotation
						End Site
						{
							OFFSET 0.00000 -0.00000 0.85167
						}
					}
				}
			}
		}
	}
	JOINT RHipJoint
	{
		OFFSET 0 0 0
		CHANNELS 3 Zrotation Yrotation Xrotation
		JOINT RightUpLeg
		{
			OFFSET -3.13988 -1.57224 1.49786
			CHANNELS 3 Zrotation Yrotation Xrotation
			JOINT RightLeg
			{
				OFFSET -2.15006 -5.90725 0.00000
				CHANNELS 3 Zrotation Yrotation Xrotation
				JOINT RightFoot
				{
					OFFSET -2.34496 -6.44273 0.00000
					CHANNELS 3 Zrotation Yrotation Xrotation
					JOINT RightToeBase
					{
						OFFSET -0.08699 -0.23900 1.55223
						CHANNELS 3 Zrotation Yrotation Xrotation
						End Site
						{
							OFFSET -0.00000 -0.00000 0.80281
						}
					}
				}
			}
		}
	}
	JOINT LowerBack
	{
		OFFSET 0 0 0
		CHANNELS 3 Zrotation Yrotation Xrotation
		JOINT Spine
		{
			OFFSET 0.01292 1.96517 -0.16495
			CHANNELS 3 Zrotation Yrotation Xrotation
			JOINT Spine1
			{
				OFFSET 0.02122 1.88666 0.19706
				CHANNELS 3 Zrotation Yrotation Xrotation
				JOINT Neck
				{
					OFFSET 0 0 0
					CHANNELS 3 Zrotation Yrotation Xrotation
					JOINT Neck1
					{
						OFFSET -0.01683 1.81591 0.07903
						CHANNELS 3 Zrotation Yrotation Xrotation
						JOINT Head
						{
							OFFSET 0.00815 1.74013 -0.47700
							CHANNELS 3 Zrotation Yrotation Xrotation
							End Site
							{
								OFFSET -0.00204 1.83225 -0.16933
							}
						}
					}
				}
				JOINT LeftShoulder
				{
					OFFSET 0 0 0
					CHANNELS 3 Zrotation Yrotation Xrotation
					JOINT LeftArm
					{
						OFFSET 3.38482 1.41533 0.19802
						CHANNELS 3 Zrotation Yrotation Xrotation
						JOINT LeftForeArm
						{
							OFFSET 4.32712 -0.00000 0.00000
							CHANNELS 3 Zrotation Yrotation Xrotation
							JOINT LeftHand
							{
								OFFSET 3.28587 -0.00000 -0.00000
								CHANNELS 3 Zrotation Yrotation Xrotation
								JOINT LeftFingerBase
								{
									OFFSET 0 0 0
									CHANNELS 3 Zrotation Yrotation Xrotation
									JOINT LeftHandIndex1
									{
										OFFSET 0.43316 -0.00000 -0.00000
										CHANNELS 3 Zrotation Yrotation Xrotation
										End Site
										{
											OFFSET 0.34922 -0.00000 -0.00000
										}
									}
								}
								JOINT LThumb
								{
									OFFSET 0 0 0
									CHANNELS 3 Zrotation Yrotation Xrotation
									End Site
									{
										OFFSET 0.35456 -0.00000 0.35456
									}
								}
							}
						}
					}
				}
				JOINT RightShoulder
				{
					OFFSET 0 0 0
					CHANNELS 3 Zrotation Yrotation Xrotation
					JOINT RightArm
					{
						OFFSET -3.09725 1.62858 -0.14144
						CHANNELS 3 Zrotation Yrotation Xrotation
						JOINT RightForeArm
						{
							OFFSET -4.29104 -0.00000 0.00000
							CHANNELS 3 Zrotation Yrotation Xrotation
							JOINT RightHand
							{
								OFFSET -3.22720 -0.00000 -0.00000
								CHANNELS 3 Zrotation Yrotation Xrotation
								JOINT RightFingerBase
								{
									OFFSET 0 0 0
									CHANNELS 3 Zrotation Yrotation Xrotation
									JOINT RightHandIndex1
									{
										OFFSET -0.54362 -0.00000 -0.00000
										CHANNELS 3 Zrotation Yrotation Xrotation
										End Site
										{
											OFFSET -0.43828 -0.00000 -0.00000
										}
									}
								}
								JOINT RThumb
								{
									OFFSET 0 0 0
									CHANNELS 3 Zrotation Yrotation Xrotation
									End Site
									{
										OFFSET -0.44497 -0.00000 0.44497
									}
								}
							}
						}
					}
				}
			}
		}
	}
}
MOTION
Frames: 6
Frame Time: .0083333
-25.7860 15.8192 4.9163 -188.0420 23.6892 -172.0430 0.0000 0.0000 0.0000 -34.4251 -18.8667 6.7632 0.0496 -1.4377 -3.9539 0.0674 1.3821 -5.6179 13.1603 -18.8393 -69.6227 0.0000 0.0000 0.0000 5.0565 1.1782 -19.2136 -1.7926 -8.4199 23.9970 -3.1319 -0.0260 -33.5917 -0.7222 5.4302 -15.1397 1.3631 4.7695 8.1082 -7.1445 6.8523 -10.1936 -10.3789 2.9249 -14.8720 19.0195 10.0025 -3.8850 -5.9147 16.6398 27.0743 -3.0144 9.8755 11.5650 -0.0000 -0.0000 0.0000 -67.8604 16.7016 20.6033 12.2477 -20.1751 -2.1870 -0.0000 -0.0000 8.5839 24.6920 32.3956 13.8383 -7.1250 0.0000 -0.0000 -9.4626 64.6724 -4.5242 -0.0000 -0.0000 0.0000 74.7112 -2.6399 30.6014 -16.0712 25.6171 -3.6767 0.0000 -0.0000 -12.0135 -32.5806 -18.3040 11.3485 7.1250 -0.0000 -0.0000 -4.5739 -51.3572 0.7175
-25.7093 15.8119 4.9596 -187.9460 22.1662 -171.9610 0.0000 0.0000 0.0000 -33.9376 -19.1244 6.4069 0.0390 -1.2749 -3.5057 0.0688 0.2552 -5.0539 13.1677 -18.8419 -69.6454 0.0000 0.0000 0.0000 5.3461 2.0382 -18.6471 -1.9001 -8.6547 24.7211 -3.2047 -0.1954 -34.0359 -0.7618 5.5739 -15.5530 1.1843 4.7475 8.3509 -7.3213 6.7860 -10.0678 -10.4953 2.9047 -14.8859 18.9436 9.8553 -4.2359 -5.5308 16.2867 27.1650 -2.8976 9.7463 11.5739 -0.0000 0.0000 0.0000 -67.2629 16.8146 23.9227 12.5304 -20.5953 -2.2854 -0.0000 -0.0000 9.8273 26.2041 32.0847 14.6502 -7.1250 0.0000 -0.0000 -7.3769 64.7799 -3.5395 -0.0000 0.0000 0.0000 75.0415 -2.9954 28.9058 -17.3381 27.3013 -4.2412 0.0000 -0.0000 -14.6238 -33.1589 -18.2498 11.5634 7.1250 -0.0000 -0.0000 -5.1802 -51.4066 0.8193
-25.6248 15.8014 5.0039 -187.8890 20.4797 -171.9290 0.0000 0.0000 0.0000 -33.4983 -19.4526 6.0869 0.0293 -1.1056 -3.0394 0.0603 -0.9731 -4.3971 13.1748 -18.8444 -69.6675 0.0000 0.0000 0.0000 5.5739 2.7763 -17.9826 -2.0046 -8.8756 25.4070 -3.2567 -0.2481 -34.3301 -0.8019 5.7155 -15.9611 0.9614 4.6803 8.6289 -7.4533 6.6505 -9.9252 -10.5254 2.8567 -14.9239 18.7272 9.6853 -4.6047 -5.2344 15.9162 27.1885 -2.7970 9.5835 11.5528 0.0000 0.0000 0.0000 -66.8856 16.7355 26.8392 12.7964 -20.9882 -2.3799 -0.0000 -0.0000 11.0823 26.5918 31.1086 14.5008 -7.1250 0.0000 -0.0000 -6.2598 63.8878 -2.8713 0.0000 0.0000 0.0000 75.3596 -3.5229 27.6059 -18.6883 29.0296 -4.8787 0.0000 -0.0000 -17.4491 -33.6587 -18.0706 11.6702 7.1250 -0.0000 -0.0000 -5.7157 -51.2972 0.8891
-25.5332 15.7897 5.0494 -187.8400 18.6491 -171.9260 0.0000 0.0000 0.0000 -33.0653 -19.8745 5.7940 0.0208 -0.9302 -2.5567 0.0415 -2.1840 -3.7016 13.1841 -18.8476 -69.6962 0.0000 0.0000 0.0000 5.7730 3.3915 -17.2733 -2.1118 -9.0952 26.0937 -3.2874 -0.1551 -34.4644 -0.8281 5.8058 -16.2219 0.7315 4.5945 8.9425 -7.5554 6.4891 -9.7851 -10.5177 2.7966 -14.9963 18.5682 9.4359 -4.9891 -5.1480 15.4708 27.1948 -2.7928 9.3728 11.5428 0.0000 0.0000 0.0000 -66.6889 16.4756 29.3660 13.0324 -21.3347 -2.4651 -0.0000 -0.0000 12.1409 27.2426 30.5589 14.6693 -7.1250 0.0000 -0.0000 -5.1312 63.4970 -2.3053 0.0000 0.0000 0.0000 75.6984 -4.2189 26.6333 -20.0165 30.6622 -5.5398 0.0000 -0.0000 -20.2137 -34.0982 -17.7606 11.6683 7.1250 -0.0000 -0.0000 -6.1949 -51.0238 0.9224
-25.4343 15.7787 5.0954 -187.7320 16.6880 -171.9130 0.0000 0.0000 0.0000 -32.5536 -20.4222 5.5127 0.0135 -0.7500 -2.0611 0.0147 -3.3634 -3.0233 13.2002 -18.8533 -69.7463 0.0000 0.0000 0.0000 6.0326 3.9128 -16.5611 -2.2258 -9.3214 26.8058 -3.2917 0.0662 -34.4202 -0.8376 5.8382 -16.3156 0.5437 4.4913 9.2506 -7.6069 6.3117 -9.6505 -10.4697 2.7262 -15.0748 18.0707 12.3193 -5.4199 -4.0649 13.7403 27.7306 -2.8089 6.9846 11.6440 -0.0000 -0.0000 0.0000 -66.7200 16.0351 31.3630 13.2118 -21.5967 -2.5307 -0.0000 -0.0000 12.9136 27.8847 30.2793 14.9383 -7.1250 0.0000 -0.0000 -4.1838 63.3802 -1.8673 -0.0000 -0.0000 0.0000 76.0387 -5.0168 26.0251 -21.2095 32.0721 -6.1608 0.0000 -0.0000 -22.6717 -34.5011 -17.3027 11.5532 7.1250 -0.0000 -0.0000 -6.6389 -50.5692 0.9147
-25.3274 15.7701 5.1409 -187.5060 14.6096 -171.8610 0.0000 0.0000 0.0000 -31.8889 -21.1143 5.2348 0.0077 -0.5653 -1.5535 -0.0205 -4.5433 -2.3574 13.2111 -18.8571 -69.7800 0.0000 0.0000 0.0000 6.4390 4.3372 -15.8699 -2.3467 -9.5538 27.5434 -3.2555 0.3833 -34.1345 -0.8443 5.8609 -16.3813 0.4458 4.3783 9.5178 -7.5995 6.1369 -9.5264 -10.3966 2.6509 -15.1356 17.8509 11.9721 -5.7713 -4.1534 13.2767 27.7693 -2.8678 6.7507 11.6504 0.0000 -0.0000 0.0000 -67.0048 15.4136 32.7461 13.3074 -21.7359 -2.5660 -0.0000 -0.0000 13.4089 28.3885 30.2084 15.2121 -7.1250 0.0000 -0.0000 -3.5219 63.4428 -1.5767 0.0000 -0.0000 0.0000 76.3905 -5.8660 25.7697 -22.1557 33.1525 -6.6708 0.0000 -0.0000 -24.6148 -34.8750 -16.7185 11.3372 7.1250 -0.0000 -0.0000 -7.0493 -49.9574 0.8653
